<mxfile host="app.diagrams.net" agent="Mozilla/5.0 (Macintosh; Intel Mac OS X 10_15_7) AppleWebKit/537.36 (KHTML, like Gecko) Chrome/135.0.0.0 Safari/537.36 Edg/135.0.0.0" version="26.2.12" pages="3">
  <diagram name="flow" id="KGI6VGIQcvan1tHNkE-I">
    <mxGraphModel dx="3083" dy="2493" grid="1" gridSize="10" guides="1" tooltips="1" connect="1" arrows="1" fold="1" page="1" pageScale="1" pageWidth="850" pageHeight="1100" math="0" shadow="0">
      <root>
        <mxCell id="0" />
        <mxCell id="1" parent="0" />
        <mxCell id="-TxLTwi2Rz4sf0re07u9-4" value="" style="group" vertex="1" connectable="0" parent="1">
          <mxGeometry x="-26" y="-30" width="1216" height="1070" as="geometry" />
        </mxCell>
        <mxCell id="OyS0LP7gdjwM5ZgKDCWq-2" style="edgeStyle=orthogonalEdgeStyle;rounded=0;orthogonalLoop=1;jettySize=auto;html=1;" parent="-TxLTwi2Rz4sf0re07u9-4" source="jy7fMgS3DjuSKp9rW54J-2" target="OyS0LP7gdjwM5ZgKDCWq-1" edge="1">
          <mxGeometry relative="1" as="geometry" />
        </mxCell>
        <mxCell id="jy7fMgS3DjuSKp9rW54J-2" value="Start&lt;div&gt;Conversation&lt;/div&gt;" style="ellipse;whiteSpace=wrap;html=1;aspect=fixed;" parent="-TxLTwi2Rz4sf0re07u9-4" vertex="1">
          <mxGeometry x="116" y="110" width="80" height="80" as="geometry" />
        </mxCell>
        <mxCell id="jy7fMgS3DjuSKp9rW54J-7" style="edgeStyle=orthogonalEdgeStyle;rounded=0;orthogonalLoop=1;jettySize=auto;html=1;" parent="-TxLTwi2Rz4sf0re07u9-4" source="jy7fMgS3DjuSKp9rW54J-3" target="jy7fMgS3DjuSKp9rW54J-4" edge="1">
          <mxGeometry relative="1" as="geometry" />
        </mxCell>
        <mxCell id="jy7fMgS3DjuSKp9rW54J-3" value="New Offer" style="ellipse;whiteSpace=wrap;html=1;aspect=fixed;" parent="-TxLTwi2Rz4sf0re07u9-4" vertex="1">
          <mxGeometry x="901" y="110" width="80" height="80" as="geometry" />
        </mxCell>
        <mxCell id="jy7fMgS3DjuSKp9rW54J-4" value="Send massive message to users that allow notifcations" style="rounded=0;whiteSpace=wrap;html=1;" parent="-TxLTwi2Rz4sf0re07u9-4" vertex="1">
          <mxGeometry x="836" y="240" width="210" height="70" as="geometry" />
        </mxCell>
        <mxCell id="OyS0LP7gdjwM5ZgKDCWq-5" style="edgeStyle=orthogonalEdgeStyle;rounded=0;orthogonalLoop=1;jettySize=auto;html=1;" parent="-TxLTwi2Rz4sf0re07u9-4" source="OyS0LP7gdjwM5ZgKDCWq-1" target="OyS0LP7gdjwM5ZgKDCWq-34" edge="1">
          <mxGeometry relative="1" as="geometry">
            <mxPoint x="41.00000000000023" y="380" as="targetPoint" />
            <Array as="points">
              <mxPoint x="41" y="295" />
            </Array>
          </mxGeometry>
        </mxCell>
        <mxCell id="OyS0LP7gdjwM5ZgKDCWq-6" value="NO" style="edgeLabel;html=1;align=center;verticalAlign=middle;resizable=0;points=[];" parent="OyS0LP7gdjwM5ZgKDCWq-5" vertex="1" connectable="0">
          <mxGeometry x="0.1724" y="1" relative="1" as="geometry">
            <mxPoint as="offset" />
          </mxGeometry>
        </mxCell>
        <mxCell id="OyS0LP7gdjwM5ZgKDCWq-14" style="edgeStyle=orthogonalEdgeStyle;rounded=0;orthogonalLoop=1;jettySize=auto;html=1;" parent="-TxLTwi2Rz4sf0re07u9-4" source="OyS0LP7gdjwM5ZgKDCWq-1" target="OyS0LP7gdjwM5ZgKDCWq-13" edge="1">
          <mxGeometry relative="1" as="geometry" />
        </mxCell>
        <mxCell id="OyS0LP7gdjwM5ZgKDCWq-15" value="YES" style="edgeLabel;html=1;align=center;verticalAlign=middle;resizable=0;points=[];" parent="OyS0LP7gdjwM5ZgKDCWq-14" vertex="1" connectable="0">
          <mxGeometry x="0.2714" relative="1" as="geometry">
            <mxPoint as="offset" />
          </mxGeometry>
        </mxCell>
        <mxCell id="OyS0LP7gdjwM5ZgKDCWq-1" value="Is user&lt;div&gt;in database?&lt;/div&gt;" style="rhombus;whiteSpace=wrap;html=1;" parent="-TxLTwi2Rz4sf0re07u9-4" vertex="1">
          <mxGeometry x="101" y="240" width="110" height="110" as="geometry" />
        </mxCell>
        <mxCell id="OyS0LP7gdjwM5ZgKDCWq-13" value="Regular&lt;div&gt;Flow&lt;/div&gt;" style="ellipse;whiteSpace=wrap;html=1;aspect=fixed;" parent="-TxLTwi2Rz4sf0re07u9-4" vertex="1">
          <mxGeometry x="226" y="380" width="80" height="80" as="geometry" />
        </mxCell>
        <mxCell id="OyS0LP7gdjwM5ZgKDCWq-50" style="edgeStyle=orthogonalEdgeStyle;rounded=0;orthogonalLoop=1;jettySize=auto;html=1;" parent="-TxLTwi2Rz4sf0re07u9-4" source="OyS0LP7gdjwM5ZgKDCWq-16" target="OyS0LP7gdjwM5ZgKDCWq-49" edge="1">
          <mxGeometry relative="1" as="geometry" />
        </mxCell>
        <mxCell id="OyS0LP7gdjwM5ZgKDCWq-16" value="Start&lt;div&gt;Sign up&lt;/div&gt;&lt;div&gt;Flow&lt;/div&gt;" style="ellipse;whiteSpace=wrap;html=1;aspect=fixed;" parent="-TxLTwi2Rz4sf0re07u9-4" vertex="1">
          <mxGeometry x="476" width="80" height="80" as="geometry" />
        </mxCell>
        <mxCell id="OyS0LP7gdjwM5ZgKDCWq-21" style="edgeStyle=orthogonalEdgeStyle;rounded=0;orthogonalLoop=1;jettySize=auto;html=1;" parent="-TxLTwi2Rz4sf0re07u9-4" source="OyS0LP7gdjwM5ZgKDCWq-17" target="OyS0LP7gdjwM5ZgKDCWq-23" edge="1">
          <mxGeometry relative="1" as="geometry">
            <mxPoint x="516" y="320" as="targetPoint" />
          </mxGeometry>
        </mxCell>
        <mxCell id="OyS0LP7gdjwM5ZgKDCWq-17" value="Name" style="rounded=0;whiteSpace=wrap;html=1;" parent="-TxLTwi2Rz4sf0re07u9-4" vertex="1">
          <mxGeometry x="456" y="220" width="120" height="60" as="geometry" />
        </mxCell>
        <mxCell id="OyS0LP7gdjwM5ZgKDCWq-37" style="edgeStyle=orthogonalEdgeStyle;rounded=0;orthogonalLoop=1;jettySize=auto;html=1;exitX=1;exitY=0.5;exitDx=0;exitDy=0;entryX=0.5;entryY=0;entryDx=0;entryDy=0;" parent="-TxLTwi2Rz4sf0re07u9-4" source="OyS0LP7gdjwM5ZgKDCWq-23" target="OyS0LP7gdjwM5ZgKDCWq-24" edge="1">
          <mxGeometry relative="1" as="geometry" />
        </mxCell>
        <mxCell id="OyS0LP7gdjwM5ZgKDCWq-38" value="YES" style="edgeLabel;html=1;align=center;verticalAlign=middle;resizable=0;points=[];" parent="OyS0LP7gdjwM5ZgKDCWq-37" vertex="1" connectable="0">
          <mxGeometry x="-0.3893" relative="1" as="geometry">
            <mxPoint as="offset" />
          </mxGeometry>
        </mxCell>
        <mxCell id="OyS0LP7gdjwM5ZgKDCWq-23" value="Validate" style="rhombus;whiteSpace=wrap;html=1;" parent="-TxLTwi2Rz4sf0re07u9-4" vertex="1">
          <mxGeometry x="466" y="320" width="100" height="100" as="geometry" />
        </mxCell>
        <mxCell id="OyS0LP7gdjwM5ZgKDCWq-39" style="edgeStyle=orthogonalEdgeStyle;rounded=0;orthogonalLoop=1;jettySize=auto;html=1;" parent="-TxLTwi2Rz4sf0re07u9-4" source="OyS0LP7gdjwM5ZgKDCWq-24" target="OyS0LP7gdjwM5ZgKDCWq-28" edge="1">
          <mxGeometry relative="1" as="geometry" />
        </mxCell>
        <mxCell id="OyS0LP7gdjwM5ZgKDCWq-24" value="Cédula" style="rounded=0;whiteSpace=wrap;html=1;" parent="-TxLTwi2Rz4sf0re07u9-4" vertex="1">
          <mxGeometry x="606" y="410" width="120" height="60" as="geometry" />
        </mxCell>
        <mxCell id="OyS0LP7gdjwM5ZgKDCWq-42" style="edgeStyle=orthogonalEdgeStyle;rounded=0;orthogonalLoop=1;jettySize=auto;html=1;" parent="-TxLTwi2Rz4sf0re07u9-4" source="OyS0LP7gdjwM5ZgKDCWq-25" target="OyS0LP7gdjwM5ZgKDCWq-29" edge="1">
          <mxGeometry relative="1" as="geometry" />
        </mxCell>
        <mxCell id="OyS0LP7gdjwM5ZgKDCWq-25" value="Correo Electrónico" style="rounded=0;whiteSpace=wrap;html=1;" parent="-TxLTwi2Rz4sf0re07u9-4" vertex="1">
          <mxGeometry x="776" y="610" width="120" height="60" as="geometry" />
        </mxCell>
        <mxCell id="OyS0LP7gdjwM5ZgKDCWq-45" style="edgeStyle=orthogonalEdgeStyle;rounded=0;orthogonalLoop=1;jettySize=auto;html=1;" parent="-TxLTwi2Rz4sf0re07u9-4" source="OyS0LP7gdjwM5ZgKDCWq-26" target="OyS0LP7gdjwM5ZgKDCWq-30" edge="1">
          <mxGeometry relative="1" as="geometry" />
        </mxCell>
        <mxCell id="OyS0LP7gdjwM5ZgKDCWq-26" value="Celular" style="rounded=0;whiteSpace=wrap;html=1;" parent="-TxLTwi2Rz4sf0re07u9-4" vertex="1">
          <mxGeometry x="936" y="820" width="120" height="60" as="geometry" />
        </mxCell>
        <mxCell id="OyS0LP7gdjwM5ZgKDCWq-27" value="Dirección" style="rounded=0;whiteSpace=wrap;html=1;" parent="-TxLTwi2Rz4sf0re07u9-4" vertex="1">
          <mxGeometry x="1096" y="1010" width="120" height="60" as="geometry" />
        </mxCell>
        <mxCell id="OyS0LP7gdjwM5ZgKDCWq-40" style="edgeStyle=orthogonalEdgeStyle;rounded=0;orthogonalLoop=1;jettySize=auto;html=1;entryX=0.5;entryY=0;entryDx=0;entryDy=0;" parent="-TxLTwi2Rz4sf0re07u9-4" source="OyS0LP7gdjwM5ZgKDCWq-28" target="OyS0LP7gdjwM5ZgKDCWq-25" edge="1">
          <mxGeometry relative="1" as="geometry" />
        </mxCell>
        <mxCell id="OyS0LP7gdjwM5ZgKDCWq-41" value="YES" style="edgeLabel;html=1;align=center;verticalAlign=middle;resizable=0;points=[];" parent="OyS0LP7gdjwM5ZgKDCWq-40" vertex="1" connectable="0">
          <mxGeometry x="-0.2324" y="5" relative="1" as="geometry">
            <mxPoint as="offset" />
          </mxGeometry>
        </mxCell>
        <mxCell id="OyS0LP7gdjwM5ZgKDCWq-28" value="Validate" style="rhombus;whiteSpace=wrap;html=1;" parent="-TxLTwi2Rz4sf0re07u9-4" vertex="1">
          <mxGeometry x="616" y="510" width="100" height="100" as="geometry" />
        </mxCell>
        <mxCell id="OyS0LP7gdjwM5ZgKDCWq-43" style="edgeStyle=orthogonalEdgeStyle;rounded=0;orthogonalLoop=1;jettySize=auto;html=1;entryX=0.5;entryY=0;entryDx=0;entryDy=0;" parent="-TxLTwi2Rz4sf0re07u9-4" source="OyS0LP7gdjwM5ZgKDCWq-29" target="OyS0LP7gdjwM5ZgKDCWq-26" edge="1">
          <mxGeometry relative="1" as="geometry" />
        </mxCell>
        <mxCell id="OyS0LP7gdjwM5ZgKDCWq-44" value="YES" style="edgeLabel;html=1;align=center;verticalAlign=middle;resizable=0;points=[];" parent="OyS0LP7gdjwM5ZgKDCWq-43" vertex="1" connectable="0">
          <mxGeometry x="-0.2625" y="-2" relative="1" as="geometry">
            <mxPoint as="offset" />
          </mxGeometry>
        </mxCell>
        <mxCell id="OyS0LP7gdjwM5ZgKDCWq-29" value="Validate" style="rhombus;whiteSpace=wrap;html=1;" parent="-TxLTwi2Rz4sf0re07u9-4" vertex="1">
          <mxGeometry x="786" y="720" width="100" height="100" as="geometry" />
        </mxCell>
        <mxCell id="OyS0LP7gdjwM5ZgKDCWq-46" style="edgeStyle=orthogonalEdgeStyle;rounded=0;orthogonalLoop=1;jettySize=auto;html=1;exitX=1;exitY=0.5;exitDx=0;exitDy=0;entryX=0.5;entryY=0;entryDx=0;entryDy=0;" parent="-TxLTwi2Rz4sf0re07u9-4" source="OyS0LP7gdjwM5ZgKDCWq-30" target="OyS0LP7gdjwM5ZgKDCWq-27" edge="1">
          <mxGeometry relative="1" as="geometry" />
        </mxCell>
        <mxCell id="OyS0LP7gdjwM5ZgKDCWq-30" value="Validate" style="rhombus;whiteSpace=wrap;html=1;" parent="-TxLTwi2Rz4sf0re07u9-4" vertex="1">
          <mxGeometry x="946" y="920" width="100" height="100" as="geometry" />
        </mxCell>
        <mxCell id="OyS0LP7gdjwM5ZgKDCWq-33" style="edgeStyle=orthogonalEdgeStyle;rounded=0;orthogonalLoop=1;jettySize=auto;html=1;" parent="-TxLTwi2Rz4sf0re07u9-4" source="OyS0LP7gdjwM5ZgKDCWq-31" target="OyS0LP7gdjwM5ZgKDCWq-32" edge="1">
          <mxGeometry relative="1" as="geometry" />
        </mxCell>
        <mxCell id="OyS0LP7gdjwM5ZgKDCWq-31" value="Regular&lt;div&gt;Flow&lt;/div&gt;" style="ellipse;whiteSpace=wrap;html=1;aspect=fixed;" parent="-TxLTwi2Rz4sf0re07u9-4" vertex="1">
          <mxGeometry x="121" y="520" width="80" height="80" as="geometry" />
        </mxCell>
        <mxCell id="OyS0LP7gdjwM5ZgKDCWq-36" style="edgeStyle=orthogonalEdgeStyle;rounded=0;orthogonalLoop=1;jettySize=auto;html=1;" parent="-TxLTwi2Rz4sf0re07u9-4" source="OyS0LP7gdjwM5ZgKDCWq-32" target="OyS0LP7gdjwM5ZgKDCWq-35" edge="1">
          <mxGeometry relative="1" as="geometry" />
        </mxCell>
        <mxCell id="OyS0LP7gdjwM5ZgKDCWq-32" value="Show latest offer and button to offer" style="rounded=0;whiteSpace=wrap;html=1;" parent="-TxLTwi2Rz4sf0re07u9-4" vertex="1">
          <mxGeometry x="101" y="655" width="120" height="60" as="geometry" />
        </mxCell>
        <mxCell id="OyS0LP7gdjwM5ZgKDCWq-34" value="Start&lt;div&gt;Sign up&lt;/div&gt;&lt;div&gt;Flow&lt;/div&gt;" style="ellipse;whiteSpace=wrap;html=1;aspect=fixed;" parent="-TxLTwi2Rz4sf0re07u9-4" vertex="1">
          <mxGeometry y="380" width="80" height="80" as="geometry" />
        </mxCell>
        <mxCell id="OyS0LP7gdjwM5ZgKDCWq-48" style="edgeStyle=orthogonalEdgeStyle;rounded=0;orthogonalLoop=1;jettySize=auto;html=1;" parent="-TxLTwi2Rz4sf0re07u9-4" source="OyS0LP7gdjwM5ZgKDCWq-35" target="OyS0LP7gdjwM5ZgKDCWq-47" edge="1">
          <mxGeometry relative="1" as="geometry" />
        </mxCell>
        <mxCell id="OyS0LP7gdjwM5ZgKDCWq-35" value="Validate offer or cancel" style="rounded=0;whiteSpace=wrap;html=1;" parent="-TxLTwi2Rz4sf0re07u9-4" vertex="1">
          <mxGeometry x="101" y="775" width="120" height="60" as="geometry" />
        </mxCell>
        <mxCell id="-TxLTwi2Rz4sf0re07u9-2" style="edgeStyle=orthogonalEdgeStyle;rounded=0;orthogonalLoop=1;jettySize=auto;html=1;" edge="1" parent="-TxLTwi2Rz4sf0re07u9-4" source="OyS0LP7gdjwM5ZgKDCWq-47" target="-TxLTwi2Rz4sf0re07u9-1">
          <mxGeometry relative="1" as="geometry" />
        </mxCell>
        <mxCell id="OyS0LP7gdjwM5ZgKDCWq-47" value="Confirm offer" style="rounded=0;whiteSpace=wrap;html=1;" parent="-TxLTwi2Rz4sf0re07u9-4" vertex="1">
          <mxGeometry x="101" y="895" width="120" height="60" as="geometry" />
        </mxCell>
        <mxCell id="OyS0LP7gdjwM5ZgKDCWq-51" style="edgeStyle=orthogonalEdgeStyle;rounded=0;orthogonalLoop=1;jettySize=auto;html=1;" parent="-TxLTwi2Rz4sf0re07u9-4" source="OyS0LP7gdjwM5ZgKDCWq-49" target="OyS0LP7gdjwM5ZgKDCWq-17" edge="1">
          <mxGeometry relative="1" as="geometry" />
        </mxCell>
        <mxCell id="OyS0LP7gdjwM5ZgKDCWq-49" value="Términos y Condiciones&lt;div&gt;Tratamiento de Datos&lt;/div&gt;" style="rounded=0;whiteSpace=wrap;html=1;" parent="-TxLTwi2Rz4sf0re07u9-4" vertex="1">
          <mxGeometry x="456" y="120" width="120" height="60" as="geometry" />
        </mxCell>
        <mxCell id="-TxLTwi2Rz4sf0re07u9-1" value="Want to receive notifications?" style="rounded=0;whiteSpace=wrap;html=1;" vertex="1" parent="-TxLTwi2Rz4sf0re07u9-4">
          <mxGeometry x="101" y="1005" width="120" height="60" as="geometry" />
        </mxCell>
      </root>
    </mxGraphModel>
  </diagram>
  <diagram id="FRK3J_fnSIoyQ88syxIO" name="tables">
    <mxGraphModel dx="893" dy="557" grid="1" gridSize="10" guides="1" tooltips="1" connect="1" arrows="1" fold="1" page="1" pageScale="1" pageWidth="850" pageHeight="1100" math="0" shadow="0">
      <root>
        <mxCell id="0" />
        <mxCell id="1" parent="0" />
        <mxCell id="2oqXqMsd4FkqPy3yHYgn-1" value="Users" style="shape=table;startSize=30;container=1;collapsible=1;childLayout=tableLayout;fixedRows=1;rowLines=0;fontStyle=1;align=center;resizeLast=1;html=1;" vertex="1" parent="1">
          <mxGeometry x="340" y="220" width="180" height="150" as="geometry" />
        </mxCell>
        <mxCell id="2oqXqMsd4FkqPy3yHYgn-2" value="" style="shape=tableRow;horizontal=0;startSize=0;swimlaneHead=0;swimlaneBody=0;fillColor=none;collapsible=0;dropTarget=0;points=[[0,0.5],[1,0.5]];portConstraint=eastwest;top=0;left=0;right=0;bottom=1;" vertex="1" parent="2oqXqMsd4FkqPy3yHYgn-1">
          <mxGeometry y="30" width="180" height="30" as="geometry" />
        </mxCell>
        <mxCell id="2oqXqMsd4FkqPy3yHYgn-3" value="PK" style="shape=partialRectangle;connectable=0;fillColor=none;top=0;left=0;bottom=0;right=0;fontStyle=1;overflow=hidden;whiteSpace=wrap;html=1;" vertex="1" parent="2oqXqMsd4FkqPy3yHYgn-2">
          <mxGeometry width="30" height="30" as="geometry">
            <mxRectangle width="30" height="30" as="alternateBounds" />
          </mxGeometry>
        </mxCell>
        <mxCell id="2oqXqMsd4FkqPy3yHYgn-4" value="phone" style="shape=partialRectangle;connectable=0;fillColor=none;top=0;left=0;bottom=0;right=0;align=left;spacingLeft=6;fontStyle=5;overflow=hidden;whiteSpace=wrap;html=1;" vertex="1" parent="2oqXqMsd4FkqPy3yHYgn-2">
          <mxGeometry x="30" width="150" height="30" as="geometry">
            <mxRectangle width="150" height="30" as="alternateBounds" />
          </mxGeometry>
        </mxCell>
        <mxCell id="2oqXqMsd4FkqPy3yHYgn-5" value="" style="shape=tableRow;horizontal=0;startSize=0;swimlaneHead=0;swimlaneBody=0;fillColor=none;collapsible=0;dropTarget=0;points=[[0,0.5],[1,0.5]];portConstraint=eastwest;top=0;left=0;right=0;bottom=0;" vertex="1" parent="2oqXqMsd4FkqPy3yHYgn-1">
          <mxGeometry y="60" width="180" height="30" as="geometry" />
        </mxCell>
        <mxCell id="2oqXqMsd4FkqPy3yHYgn-6" value="" style="shape=partialRectangle;connectable=0;fillColor=none;top=0;left=0;bottom=0;right=0;editable=1;overflow=hidden;whiteSpace=wrap;html=1;" vertex="1" parent="2oqXqMsd4FkqPy3yHYgn-5">
          <mxGeometry width="30" height="30" as="geometry">
            <mxRectangle width="30" height="30" as="alternateBounds" />
          </mxGeometry>
        </mxCell>
        <mxCell id="2oqXqMsd4FkqPy3yHYgn-7" value="id" style="shape=partialRectangle;connectable=0;fillColor=none;top=0;left=0;bottom=0;right=0;align=left;spacingLeft=6;overflow=hidden;whiteSpace=wrap;html=1;" vertex="1" parent="2oqXqMsd4FkqPy3yHYgn-5">
          <mxGeometry x="30" width="150" height="30" as="geometry">
            <mxRectangle width="150" height="30" as="alternateBounds" />
          </mxGeometry>
        </mxCell>
        <mxCell id="2oqXqMsd4FkqPy3yHYgn-8" value="" style="shape=tableRow;horizontal=0;startSize=0;swimlaneHead=0;swimlaneBody=0;fillColor=none;collapsible=0;dropTarget=0;points=[[0,0.5],[1,0.5]];portConstraint=eastwest;top=0;left=0;right=0;bottom=0;" vertex="1" parent="2oqXqMsd4FkqPy3yHYgn-1">
          <mxGeometry y="90" width="180" height="30" as="geometry" />
        </mxCell>
        <mxCell id="2oqXqMsd4FkqPy3yHYgn-9" value="" style="shape=partialRectangle;connectable=0;fillColor=none;top=0;left=0;bottom=0;right=0;editable=1;overflow=hidden;whiteSpace=wrap;html=1;" vertex="1" parent="2oqXqMsd4FkqPy3yHYgn-8">
          <mxGeometry width="30" height="30" as="geometry">
            <mxRectangle width="30" height="30" as="alternateBounds" />
          </mxGeometry>
        </mxCell>
        <mxCell id="2oqXqMsd4FkqPy3yHYgn-10" value="Row 2" style="shape=partialRectangle;connectable=0;fillColor=none;top=0;left=0;bottom=0;right=0;align=left;spacingLeft=6;overflow=hidden;whiteSpace=wrap;html=1;" vertex="1" parent="2oqXqMsd4FkqPy3yHYgn-8">
          <mxGeometry x="30" width="150" height="30" as="geometry">
            <mxRectangle width="150" height="30" as="alternateBounds" />
          </mxGeometry>
        </mxCell>
        <mxCell id="2oqXqMsd4FkqPy3yHYgn-11" value="" style="shape=tableRow;horizontal=0;startSize=0;swimlaneHead=0;swimlaneBody=0;fillColor=none;collapsible=0;dropTarget=0;points=[[0,0.5],[1,0.5]];portConstraint=eastwest;top=0;left=0;right=0;bottom=0;" vertex="1" parent="2oqXqMsd4FkqPy3yHYgn-1">
          <mxGeometry y="120" width="180" height="30" as="geometry" />
        </mxCell>
        <mxCell id="2oqXqMsd4FkqPy3yHYgn-12" value="" style="shape=partialRectangle;connectable=0;fillColor=none;top=0;left=0;bottom=0;right=0;editable=1;overflow=hidden;whiteSpace=wrap;html=1;" vertex="1" parent="2oqXqMsd4FkqPy3yHYgn-11">
          <mxGeometry width="30" height="30" as="geometry">
            <mxRectangle width="30" height="30" as="alternateBounds" />
          </mxGeometry>
        </mxCell>
        <mxCell id="2oqXqMsd4FkqPy3yHYgn-13" value="allowNotifications" style="shape=partialRectangle;connectable=0;fillColor=none;top=0;left=0;bottom=0;right=0;align=left;spacingLeft=6;overflow=hidden;whiteSpace=wrap;html=1;" vertex="1" parent="2oqXqMsd4FkqPy3yHYgn-11">
          <mxGeometry x="30" width="150" height="30" as="geometry">
            <mxRectangle width="150" height="30" as="alternateBounds" />
          </mxGeometry>
        </mxCell>
        <mxCell id="2oqXqMsd4FkqPy3yHYgn-14" value="Conversation" style="shape=table;startSize=30;container=1;collapsible=1;childLayout=tableLayout;fixedRows=1;rowLines=0;fontStyle=1;align=center;resizeLast=1;html=1;" vertex="1" parent="1">
          <mxGeometry x="550" y="220" width="180" height="150" as="geometry" />
        </mxCell>
        <mxCell id="2oqXqMsd4FkqPy3yHYgn-15" value="" style="shape=tableRow;horizontal=0;startSize=0;swimlaneHead=0;swimlaneBody=0;fillColor=none;collapsible=0;dropTarget=0;points=[[0,0.5],[1,0.5]];portConstraint=eastwest;top=0;left=0;right=0;bottom=1;" vertex="1" parent="2oqXqMsd4FkqPy3yHYgn-14">
          <mxGeometry y="30" width="180" height="30" as="geometry" />
        </mxCell>
        <mxCell id="2oqXqMsd4FkqPy3yHYgn-16" value="PK" style="shape=partialRectangle;connectable=0;fillColor=none;top=0;left=0;bottom=0;right=0;fontStyle=1;overflow=hidden;whiteSpace=wrap;html=1;" vertex="1" parent="2oqXqMsd4FkqPy3yHYgn-15">
          <mxGeometry width="30" height="30" as="geometry">
            <mxRectangle width="30" height="30" as="alternateBounds" />
          </mxGeometry>
        </mxCell>
        <mxCell id="2oqXqMsd4FkqPy3yHYgn-17" value="phone" style="shape=partialRectangle;connectable=0;fillColor=none;top=0;left=0;bottom=0;right=0;align=left;spacingLeft=6;fontStyle=5;overflow=hidden;whiteSpace=wrap;html=1;" vertex="1" parent="2oqXqMsd4FkqPy3yHYgn-15">
          <mxGeometry x="30" width="150" height="30" as="geometry">
            <mxRectangle width="150" height="30" as="alternateBounds" />
          </mxGeometry>
        </mxCell>
        <mxCell id="2oqXqMsd4FkqPy3yHYgn-18" value="" style="shape=tableRow;horizontal=0;startSize=0;swimlaneHead=0;swimlaneBody=0;fillColor=none;collapsible=0;dropTarget=0;points=[[0,0.5],[1,0.5]];portConstraint=eastwest;top=0;left=0;right=0;bottom=0;" vertex="1" parent="2oqXqMsd4FkqPy3yHYgn-14">
          <mxGeometry y="60" width="180" height="30" as="geometry" />
        </mxCell>
        <mxCell id="2oqXqMsd4FkqPy3yHYgn-19" value="" style="shape=partialRectangle;connectable=0;fillColor=none;top=0;left=0;bottom=0;right=0;editable=1;overflow=hidden;whiteSpace=wrap;html=1;" vertex="1" parent="2oqXqMsd4FkqPy3yHYgn-18">
          <mxGeometry width="30" height="30" as="geometry">
            <mxRectangle width="30" height="30" as="alternateBounds" />
          </mxGeometry>
        </mxCell>
        <mxCell id="2oqXqMsd4FkqPy3yHYgn-20" value="id" style="shape=partialRectangle;connectable=0;fillColor=none;top=0;left=0;bottom=0;right=0;align=left;spacingLeft=6;overflow=hidden;whiteSpace=wrap;html=1;" vertex="1" parent="2oqXqMsd4FkqPy3yHYgn-18">
          <mxGeometry x="30" width="150" height="30" as="geometry">
            <mxRectangle width="150" height="30" as="alternateBounds" />
          </mxGeometry>
        </mxCell>
        <mxCell id="2oqXqMsd4FkqPy3yHYgn-21" value="" style="shape=tableRow;horizontal=0;startSize=0;swimlaneHead=0;swimlaneBody=0;fillColor=none;collapsible=0;dropTarget=0;points=[[0,0.5],[1,0.5]];portConstraint=eastwest;top=0;left=0;right=0;bottom=0;" vertex="1" parent="2oqXqMsd4FkqPy3yHYgn-14">
          <mxGeometry y="90" width="180" height="30" as="geometry" />
        </mxCell>
        <mxCell id="2oqXqMsd4FkqPy3yHYgn-22" value="" style="shape=partialRectangle;connectable=0;fillColor=none;top=0;left=0;bottom=0;right=0;editable=1;overflow=hidden;whiteSpace=wrap;html=1;" vertex="1" parent="2oqXqMsd4FkqPy3yHYgn-21">
          <mxGeometry width="30" height="30" as="geometry">
            <mxRectangle width="30" height="30" as="alternateBounds" />
          </mxGeometry>
        </mxCell>
        <mxCell id="2oqXqMsd4FkqPy3yHYgn-23" value="Row 2" style="shape=partialRectangle;connectable=0;fillColor=none;top=0;left=0;bottom=0;right=0;align=left;spacingLeft=6;overflow=hidden;whiteSpace=wrap;html=1;" vertex="1" parent="2oqXqMsd4FkqPy3yHYgn-21">
          <mxGeometry x="30" width="150" height="30" as="geometry">
            <mxRectangle width="150" height="30" as="alternateBounds" />
          </mxGeometry>
        </mxCell>
        <mxCell id="2oqXqMsd4FkqPy3yHYgn-24" value="" style="shape=tableRow;horizontal=0;startSize=0;swimlaneHead=0;swimlaneBody=0;fillColor=none;collapsible=0;dropTarget=0;points=[[0,0.5],[1,0.5]];portConstraint=eastwest;top=0;left=0;right=0;bottom=0;" vertex="1" parent="2oqXqMsd4FkqPy3yHYgn-14">
          <mxGeometry y="120" width="180" height="30" as="geometry" />
        </mxCell>
        <mxCell id="2oqXqMsd4FkqPy3yHYgn-25" value="" style="shape=partialRectangle;connectable=0;fillColor=none;top=0;left=0;bottom=0;right=0;editable=1;overflow=hidden;whiteSpace=wrap;html=1;" vertex="1" parent="2oqXqMsd4FkqPy3yHYgn-24">
          <mxGeometry width="30" height="30" as="geometry">
            <mxRectangle width="30" height="30" as="alternateBounds" />
          </mxGeometry>
        </mxCell>
        <mxCell id="2oqXqMsd4FkqPy3yHYgn-26" value="allowNotifications" style="shape=partialRectangle;connectable=0;fillColor=none;top=0;left=0;bottom=0;right=0;align=left;spacingLeft=6;overflow=hidden;whiteSpace=wrap;html=1;" vertex="1" parent="2oqXqMsd4FkqPy3yHYgn-24">
          <mxGeometry x="30" width="150" height="30" as="geometry">
            <mxRectangle width="150" height="30" as="alternateBounds" />
          </mxGeometry>
        </mxCell>
        <mxCell id="2oqXqMsd4FkqPy3yHYgn-27" value="Offers" style="shape=table;startSize=30;container=1;collapsible=1;childLayout=tableLayout;fixedRows=1;rowLines=0;fontStyle=1;align=center;resizeLast=1;html=1;" vertex="1" parent="1">
          <mxGeometry x="760" y="220" width="180" height="150" as="geometry" />
        </mxCell>
        <mxCell id="2oqXqMsd4FkqPy3yHYgn-28" value="" style="shape=tableRow;horizontal=0;startSize=0;swimlaneHead=0;swimlaneBody=0;fillColor=none;collapsible=0;dropTarget=0;points=[[0,0.5],[1,0.5]];portConstraint=eastwest;top=0;left=0;right=0;bottom=1;" vertex="1" parent="2oqXqMsd4FkqPy3yHYgn-27">
          <mxGeometry y="30" width="180" height="30" as="geometry" />
        </mxCell>
        <mxCell id="2oqXqMsd4FkqPy3yHYgn-29" value="PK" style="shape=partialRectangle;connectable=0;fillColor=none;top=0;left=0;bottom=0;right=0;fontStyle=1;overflow=hidden;whiteSpace=wrap;html=1;" vertex="1" parent="2oqXqMsd4FkqPy3yHYgn-28">
          <mxGeometry width="30" height="30" as="geometry">
            <mxRectangle width="30" height="30" as="alternateBounds" />
          </mxGeometry>
        </mxCell>
        <mxCell id="2oqXqMsd4FkqPy3yHYgn-30" value="phone" style="shape=partialRectangle;connectable=0;fillColor=none;top=0;left=0;bottom=0;right=0;align=left;spacingLeft=6;fontStyle=5;overflow=hidden;whiteSpace=wrap;html=1;" vertex="1" parent="2oqXqMsd4FkqPy3yHYgn-28">
          <mxGeometry x="30" width="150" height="30" as="geometry">
            <mxRectangle width="150" height="30" as="alternateBounds" />
          </mxGeometry>
        </mxCell>
        <mxCell id="2oqXqMsd4FkqPy3yHYgn-31" value="" style="shape=tableRow;horizontal=0;startSize=0;swimlaneHead=0;swimlaneBody=0;fillColor=none;collapsible=0;dropTarget=0;points=[[0,0.5],[1,0.5]];portConstraint=eastwest;top=0;left=0;right=0;bottom=0;" vertex="1" parent="2oqXqMsd4FkqPy3yHYgn-27">
          <mxGeometry y="60" width="180" height="30" as="geometry" />
        </mxCell>
        <mxCell id="2oqXqMsd4FkqPy3yHYgn-32" value="" style="shape=partialRectangle;connectable=0;fillColor=none;top=0;left=0;bottom=0;right=0;editable=1;overflow=hidden;whiteSpace=wrap;html=1;" vertex="1" parent="2oqXqMsd4FkqPy3yHYgn-31">
          <mxGeometry width="30" height="30" as="geometry">
            <mxRectangle width="30" height="30" as="alternateBounds" />
          </mxGeometry>
        </mxCell>
        <mxCell id="2oqXqMsd4FkqPy3yHYgn-33" value="id" style="shape=partialRectangle;connectable=0;fillColor=none;top=0;left=0;bottom=0;right=0;align=left;spacingLeft=6;overflow=hidden;whiteSpace=wrap;html=1;" vertex="1" parent="2oqXqMsd4FkqPy3yHYgn-31">
          <mxGeometry x="30" width="150" height="30" as="geometry">
            <mxRectangle width="150" height="30" as="alternateBounds" />
          </mxGeometry>
        </mxCell>
        <mxCell id="2oqXqMsd4FkqPy3yHYgn-34" value="" style="shape=tableRow;horizontal=0;startSize=0;swimlaneHead=0;swimlaneBody=0;fillColor=none;collapsible=0;dropTarget=0;points=[[0,0.5],[1,0.5]];portConstraint=eastwest;top=0;left=0;right=0;bottom=0;" vertex="1" parent="2oqXqMsd4FkqPy3yHYgn-27">
          <mxGeometry y="90" width="180" height="30" as="geometry" />
        </mxCell>
        <mxCell id="2oqXqMsd4FkqPy3yHYgn-35" value="" style="shape=partialRectangle;connectable=0;fillColor=none;top=0;left=0;bottom=0;right=0;editable=1;overflow=hidden;whiteSpace=wrap;html=1;" vertex="1" parent="2oqXqMsd4FkqPy3yHYgn-34">
          <mxGeometry width="30" height="30" as="geometry">
            <mxRectangle width="30" height="30" as="alternateBounds" />
          </mxGeometry>
        </mxCell>
        <mxCell id="2oqXqMsd4FkqPy3yHYgn-36" value="Row 2" style="shape=partialRectangle;connectable=0;fillColor=none;top=0;left=0;bottom=0;right=0;align=left;spacingLeft=6;overflow=hidden;whiteSpace=wrap;html=1;" vertex="1" parent="2oqXqMsd4FkqPy3yHYgn-34">
          <mxGeometry x="30" width="150" height="30" as="geometry">
            <mxRectangle width="150" height="30" as="alternateBounds" />
          </mxGeometry>
        </mxCell>
        <mxCell id="2oqXqMsd4FkqPy3yHYgn-37" value="" style="shape=tableRow;horizontal=0;startSize=0;swimlaneHead=0;swimlaneBody=0;fillColor=none;collapsible=0;dropTarget=0;points=[[0,0.5],[1,0.5]];portConstraint=eastwest;top=0;left=0;right=0;bottom=0;" vertex="1" parent="2oqXqMsd4FkqPy3yHYgn-27">
          <mxGeometry y="120" width="180" height="30" as="geometry" />
        </mxCell>
        <mxCell id="2oqXqMsd4FkqPy3yHYgn-38" value="" style="shape=partialRectangle;connectable=0;fillColor=none;top=0;left=0;bottom=0;right=0;editable=1;overflow=hidden;whiteSpace=wrap;html=1;" vertex="1" parent="2oqXqMsd4FkqPy3yHYgn-37">
          <mxGeometry width="30" height="30" as="geometry">
            <mxRectangle width="30" height="30" as="alternateBounds" />
          </mxGeometry>
        </mxCell>
        <mxCell id="2oqXqMsd4FkqPy3yHYgn-39" value="allowNotifications" style="shape=partialRectangle;connectable=0;fillColor=none;top=0;left=0;bottom=0;right=0;align=left;spacingLeft=6;overflow=hidden;whiteSpace=wrap;html=1;" vertex="1" parent="2oqXqMsd4FkqPy3yHYgn-37">
          <mxGeometry x="30" width="150" height="30" as="geometry">
            <mxRectangle width="150" height="30" as="alternateBounds" />
          </mxGeometry>
        </mxCell>
      </root>
    </mxGraphModel>
  </diagram>
  <diagram id="nuF41Zz-Jvogv8PT2ZOL" name="architecture">
    <mxGraphModel dx="893" dy="557" grid="1" gridSize="10" guides="1" tooltips="1" connect="1" arrows="1" fold="1" page="1" pageScale="1" pageWidth="850" pageHeight="1100" math="0" shadow="0">
      <root>
        <mxCell id="0" />
        <mxCell id="1" parent="0" />
      </root>
    </mxGraphModel>
  </diagram>
</mxfile>
